<svg xmlns="http://www.w3.org/2000/svg" viewBox="0 0 221.64 290.5"><defs><style>.cls-1{fill:#11a4e9;}</style></defs><g id="Layer_2" data-name="Layer 2"><g id="Layer_1-2" data-name="Layer 1"><path class="cls-1" d="M221.64,208.12l-59-59a70.64,70.64,0,1,0-15,15.72l58.6,58.6ZM55.88,109a48.82,48.82,0,1,1,48.82,48.83A48.88,48.88,0,0,1,55.88,109Z"/><path d="M153.47,181.15l-48.86,71-68-99.31C11.87,116.73,18.17,68.62,51.27,40.94a82.21,82.21,0,0,1,51.18-19.21c.78,0,1.55,0,2.33,0s1.63,0,2.44,0a82.37,82.37,0,0,1,51.11,19.19c31.93,26.62,38.77,74.23,16.18,109.55l15.65,15.64.67-1a106.51,106.51,0,0,0,17.92-74.09,104.13,104.13,0,0,0-101-91c-2,0-3.93,0-5.88,0a104.13,104.13,0,0,0-101,91A106.64,106.64,0,0,0,18.7,165.11L104.57,290.5l64.5-93.74Z"/></g></g></svg>