<svg xmlns="http://www.w3.org/2000/svg" viewBox="0 0 838.64 290.5"><defs><style>.cls-1{font-size:146.75px;font-family:Roboto-Black, Roboto;font-weight:800;}.cls-1,.cls-7{fill:#11a4e9;}.cls-2{font-size:122.92px;fill:#202223;}.cls-3{letter-spacing:-0.01em;}.cls-4{letter-spacing:0em;}.cls-5{letter-spacing:-0.02em;}.cls-6{letter-spacing:0em;}</style></defs><g id="Layer_2" data-name="Layer 2"><g id="Layer_1-2" data-name="Layer 1"><text class="cls-1" transform="translate(269.56 145.46)">SEARCH<tspan class="cls-2"><tspan x="0" y="104">COU</tspan><tspan class="cls-3" x="247.21" y="104">N</tspan><tspan class="cls-4" x="331.78" y="104">T</tspan><tspan class="cls-5" x="409.26" y="104">R</tspan><tspan class="cls-6" x="486.56" y="104">Y</tspan></tspan></text><path class="cls-7" d="M221.64,208.12l-59-59a70.64,70.64,0,1,0-15,15.72l58.6,58.6ZM55.88,109a48.82,48.82,0,1,1,48.82,48.83A48.88,48.88,0,0,1,55.88,109Z"/><path d="M153.47,181.15l-48.86,71-68-99.31C11.87,116.73,18.17,68.62,51.27,40.94a82.21,82.21,0,0,1,51.18-19.21c.78,0,1.55,0,2.33,0s1.63,0,2.44,0a82.37,82.37,0,0,1,51.11,19.19c31.93,26.62,38.77,74.23,16.18,109.55l15.65,15.64.67-1a106.51,106.51,0,0,0,17.92-74.09,104.13,104.13,0,0,0-101-91c-2,0-3.93,0-5.88,0a104.13,104.13,0,0,0-101,91A106.64,106.64,0,0,0,18.7,165.11L104.57,290.5l64.5-93.74Z"/></g></g></svg>